# xmcd
#
# Track frame offsets:
#	182
#	101225
#	111162
#	139182
#	162485
#	195127
#
# Disc length: 2853 seconds
#
# Revision: 0
# Processed by: cddbd v1.5PL3 Copyright (c) Steve Scherf et al.
# Submitted via: audiograbber 1.82.02
#
DISCID=4d0b2306
DTITLE=Jozka Cerny - Na horach, na dolach
DYEAR=1988
DGENRE=
TTITLE0=Slunicko sa nizi.....aj.
TTITLE1=U Lanzhota na doline
TTITLE2=V Hodonine jarmark byl.....aj.
TTITLE3=Keby som bol vtackom.....aj.
TTITLE4=Vinohrady, vinohrady.....aj.
TTITLE5=Za staru Breclavu.....aj.
EXTD=
EXTT0=
EXTT1=
EXTT2=
EXTT3=
EXTT4=
EXTT5=
PLAYORDER=
